#!OML:ASF E:/inclinewalkrobotboard/Project1/Captureday1/Session1/subject1.ASF
:FULLY-SPECIFIED
:DEGREES
63
root 0 0 0 -0.5100788456903563 -3.016595309194898 -0.19577547776148396
lowerback 11.215959376762275 0.6351588231981319 0.3997859114235379
upperback -1.9394486258234496 0.9281943445129013 0.49789817380255114
thorax -8.372049392117994 0.4321348852612274 0.1101115055205319
lowerneck -11.41903095684738 -0.6330366859129428 1.3458177976475842
upperneck 18.860057650616493 -0.25517559925240363 -3.8963817798976157
head 7.82444241919376 -0.31655307581456604 -1.5687639055194178
rclavicle -5.482786927228014E-16 -6.207396409922551E-16
rhumerus -0.49383502081047403 0.9303152040069609 -60.19287468123177
rradius 53.36845043632948
rwrist 17.467771993266137
rhand -27.25262352394254 -23.484783767554255
rfingers 7.125019999999925
rthumb -0.8455643497229657 -53.621838693819
lclavicle -4.89933319897597E-16 -6.938722315266581E-16
lhumerus -1.2665738488169005 -6.93187543498748 60.46771944013595
lradius 52.66184659976632
lwrist -11.147602541272942
lhand -37.28016485057442 -31.269380893607497
lfingers 7.12501999999992
lthumb -10.381938695142228 -1.7183085564941685
rfemur -21.377803047563837 -0.3380363776621227 19.549058508076183
rtibia 50.606925618929964
rfoot -22.759448603164692 -13.848231067262319
rtoes -12.216169315122784
lfemur -23.12532441497209 1.5466921788638768 -18.14253279932075
ltibia 50.12132694305601
lfoot -25.952219924043703 -3.6531460079778952
ltoes -16.717529746627946
64
root 0 0 0 -0.5082571571058395 -3.017165137320697 -0.1940218573947432
lowerback 11.21661938589036 0.6354461516478199 0.3994198707737938
upperback -1.9417207214154373 0.9284678235973842 0.4968846507188549
thorax -8.374963688146822 0.4322209737857834 0.10921815261191908
lowerneck -11.414211105297461 -0.6309800105653155 1.3488291281953482
upperneck 18.85975809746058 -0.25215791751395544 -3.9003234754279426
head 7.823571500840272 -0.31523947388353957 -1.5702710736166225
rclavicle -5.479974514265659E-16 -6.202707072565843E-16
rhumerus -0.49431872955284994 0.929719072183465 -60.194042802813485
rradius 53.36744420913601
rwrist 17.46698786215351
rhand -27.25207407183672 -23.48223307973307
rfingers 7.125019999999925
rthumb -0.8447831194187492 -53.61839855605717
lclavicle -4.898235925365326E-16 -6.931572377916918E-16
lhumerus -1.271303765244303 -6.93062127668853 60.47106401474764
lradius 52.655972742085495
lwrist -11.144783626962553
lhand -37.277903176799285 -31.261267229626235
lfingers 7.12501999999992
lthumb -10.380117157688325 -1.7079549698802836
rfemur -21.378790951506772 -0.3386851968483908 19.548208132305614
rtibia 50.60837866961961
rfoot -22.761357915267922 -13.849530809147337
rtoes -12.218682607638126
lfemur -23.134985415136754 1.549021696335991 -18.14129232348
ltibia 50.13311553586657
lfoot -25.966109523331603 -3.6535979349733756
ltoes -16.72595432809969
65
root 0 0 0 -0.5077060181550004 -3.0173690881354376 -0.1934977973579216
lowerback 11.21683466533048 0.6355535185918146 0.3993323310670849
upperback -1.9424336853159176 0.9285566443653176 0.4965538346801827
thorax -8.375867926667185 0.4322493813658149 0.1089048780140226
lowerneck -11.412681870382734 -0.6303603600646556 1.3497582245050732
upperneck 18.85964235328474 -0.2512001494258891 -3.9015631418675607
head 7.823282109958288 -0.3148159993895917 -1.5707310540600383
rclavicle -5.480749840508679E-16 -6.201478320752355E-16
rhumerus -0.4977844324939582 0.9274132036443081 -60.196163590534965
rradius 53.364216160279526
rwrist 17.465327624470856
rhand -27.250878911568133 -23.47665232460095
rfingers 7.125019999999925
rthumb -0.8436483372218033 -53.61292997970399
lclavicle -4.899398162037208E-16 -6.930640095747724E-16
lhumerus -1.2800479163724443 -6.928492315397912 60.47721058227821
lradius 52.649140775045986
lwrist -11.14022973678943
lhand -37.27495462785724 -31.24588177308091
lfingers 7.12501999999992
lthumb -10.377321113952451 -1.692597418594513
rfemur -21.380564425864165 -0.3398653783387191 19.54671664403949
rtibia 50.6110884023866
rfoot -22.7647990205828 -13.851171230613799
rtoes -12.222218168712384
lfemur -23.136837070369904 1.549450809853312 -18.141122778399783
ltibia 50.13500875440814
lfoot -25.96860015021648 -3.653606824967898
ltoes -16.72753856857051
66
root 0 0 0 -0.5075583190135521 -3.017408161949163 -0.19332418060904344
lowerback 11.216890828748953 0.6355749185106774 0.39928306561328986
upperback -1.9426282118407712 0.9285655919177946 0.49646061248932016
thorax -8.376097466026485 0.43225539855214884 0.10883059381653343
lowerneck -11.412262729759576 -0.6301885349318427 1.350004042000559
upperneck 18.859604279238955 -0.2509364802815768 -3.901895798586608
head 7.823201490807666 -0.314698587039291 -1.570856687435929
rclavicle -5.480636848352057E-16 -6.200389745986741E-16
rhumerus -0.5066286836926253 0.921592286095466 -60.20146983898455
rradius 53.35613110156934
rwrist 17.461246929150843
rhand -27.24791946880196 -23.46251570625236
rfingers 7.125019999999925
rthumb -0.8408810022950677 -53.59889576616843
lclavicle -4.900759211334902E-16 -6.930110312126869E-16
lhumerus -1.2889101164085641 -6.926378781901434 60.483460739371395
lradius 52.64232261710215
lwrist -11.135600198483454
lhand -37.27199430925826 -31.230416304138146
lfingers 7.12501999999992
lthumb -10.374492893477052 -1.6769869511213784
rfemur -21.382777852865942 -0.3412031817751906 19.54492045514445
rtibia 50.61399453410962
rfoot -22.768747794069448 -13.853099194999539
rtoes -12.226406854114096
lfemur -23.133348472453427 1.5485993166805607 -18.14148801722898
ltibia 50.13071775046857
lfoot -25.96371367823926 -3.6533880878836107
ltoes -16.724322988212844
67
root 0 0 0 -0.5075031201419227 -3.0174067533524833 -0.19323264080567426
lowerback 11.216910672565447 0.6355740660358469 0.39924055298345873
upperback -1.9427032114005531 0.9285538545113556 0.4964239405779749
thorax -8.376184672405252 0.43225556003973997 0.10881589692466898
lowerneck -11.41210073400345 -0.6301105590500525 1.35010638575407
upperneck 18.859582174144094 -0.2508277047197629 -3.9020215086903685
head 7.823166781911618 -0.3146543670119736 -1.5709084773284934
rclavicle -5.481203355045301E-16 -6.199584522821434E-16
rhumerus -0.5128000289640635 0.9175261869016644 -60.205162918621056
rradius 53.35047007547083
rwrist 17.458402170035477
rhand -27.245857597166367 -23.452669620942224
rfingers 7.125019999999925
rthumb -0.8389496696782421 -53.58913982839178
lclavicle -4.901232131000896E-16 -6.929738687796681E-16
lhumerus -1.2937758442748386 -6.925215465815123 60.48690082765411
lradius 52.63855278329474
lwrist -11.133054668072976
lhand -37.270362196891725 -31.221864623931353
lfingers 7.12501999999992
lthumb -10.372931358852254 -1.6683748244018943
rfemur -21.385539288429893 -0.3428863093677683 19.54266476667138
rtibia 50.617662713800456
rfoot -22.77371364106626 -13.855514908086347
rtoes -12.231652042693149
lfemur -23.129418567586264 1.5476387137777856 -18.141896804373687
ltibia 50.12590422793316
lfoot -25.95818246590025 -3.6531738510876957
ltoes -16.720709676583823
68
root 0 0 0 -0.5107157389524752 -3.0163727133859943 -0.19639441949745218
lowerback 11.215709895763192 0.6350449305836599 0.3998906188228253
upperback -1.9386227998565495 0.9280944100571001 0.498270775386008
thorax -8.371001334707229 0.43210256635065053 0.11046857988127778
lowerneck -11.420782185740837 -0.6337522266736575 1.344748380090717
upperneck 18.86017222764207 -0.2562807938677307 -3.894948075224658
head 7.824776563411619 -0.3170407211125159 -1.5682348044753742
rclavicle -5.484242187477893E-16 -6.205806641335449E-16
rhumerus -0.5058276453020909 0.9223944185082669 -60.20003366672989
rradius 53.35745479185487
rwrist 17.462278429640357
rhand -27.248627638579144 -23.465679354030968
rfingers 7.125019999999925
rthumb -0.8418276304516663 -53.60294790499195
lclavicle -4.899763855276859E-16 -6.938102403408519E-16
lhumerus -1.2733904762654955 -6.930262372695568 60.47255705654288
lradius 52.656571706386686
lwrist -11.144024430445384
lhand -37.27787020492636 -31.257396547299706
lfingers 7.12501999999992
lthumb -10.379746635196089 -1.706205039968708
rfemur -21.38073760256642 -0.3397831511911549 19.54669240030203
rtibia 50.61070606859442
rfoot -22.764607107416033 -13.850750218101783
rtoes -12.221624296599202
lfemur -23.12086585592622 1.545611687107921 -18.1430071660754
ltibia 50.11596440567608
lfoot -25.945996328027576 -3.652929953236402
ltoes -16.713488387551166
69
root 0 0 0 -0.5089055709008067 -3.0169281928939333 -0.1946431921527757
lowerback 11.21636518143729 0.6353236165651776 0.3995192230366742
upperback -1.9408781296679782 0.9283591604030605 0.497266322187993
thorax -8.373898097234534 0.4321865039949034 0.10958875369318921
lowerneck -11.41599369549007 -0.6317028690802574 1.3477402980244089
upperneck 18.85987416224616 -0.2532801833368796 -3.898867244953678
head 7.82391104262437 -0.31573640929095614 -1.5697330518036399
rclavicle -5.481335191902852E-16 -6.201294758785357E-16
rhumerus -0.505072731809241 0.9226112116440337 -60.200454322203534
rradius 53.35758858891454
rwrist 17.462073610041937
rhand -27.248494609207235 -23.465112361298885
rfingers 7.125019999999925
rthumb -0.8414384862053357 -53.60148571659038
lclavicle -4.898327442681341E-16 -6.931124945897765E-16
lhumerus -1.2754706392636308 -6.929648270195552 60.4740463591087
lradius 52.65275105449711
lwrist -11.142583120413537
lhand -37.276492957107315 -31.25391387568206
lfingers 7.12501999999992
lthumb -10.378771722993356 -1.700514772714925
rfemur -21.38193210015343 -0.3405450831324819 19.545682536059065
rtibia 50.612391465732316
rfoot -22.766862870918605 -13.852220948286291
rtoes -12.224503286086676
lfemur -23.130872165642884 1.5480289362228463 -18.141737293782175
ltibia 50.128209380982774
lfoot -25.960395950089172 -3.6534077192357017
ltoes -16.722255505631033
